<?xml version="1.0" encoding="UTF-8"?>
<svg version="1.1" xmlns="http://www.w3.org/2000/svg" width="500" height="500">
<path d="M0 0 C1.23138199 -0.00902847 2.46276398 -0.01805695 3.73146057 -0.02735901 C6.33600458 -0.04181483 8.94058453 -0.05073657 11.54516602 -0.05444336 C15.43377452 -0.06619432 19.32071681 -0.11530662 23.20898438 -0.16601562 C44.88807905 -0.30732868 65.91382722 2.39739217 86.56640625 9.18359375 C87.62843262 9.52197266 88.69045898 9.86035156 89.78466797 10.20898438 C102.56322992 14.3729368 114.76050884 19.64469873 126.81640625 25.55859375 C127.44820801 25.86732422 128.08000977 26.17605469 128.73095703 26.49414062 C132.57355893 28.43657743 136.03061281 30.66134784 139.47875977 33.24047852 C141.27531759 34.56631347 141.27531759 34.56631347 144.25390625 36.12109375 C153.14146385 41.1005066 160.86380337 47.8627863 168.2331543 54.82836914 C170.92565889 57.4056526 170.92565889 57.4056526 174.06640625 59.37109375 C174.06640625 60.03109375 174.06640625 60.69109375 174.06640625 61.37109375 C174.72640625 61.37109375 175.38640625 61.37109375 176.06640625 61.37109375 C178.6488993 63.79547498 180.81953056 66.63873242 183.06640625 69.37109375 C183.48664063 69.88043457 183.906875 70.38977539 184.33984375 70.91455078 C208.65838322 100.56594915 221.7916309 135.21189092 221.50390625 173.55859375 C221.5011972 174.40971741 221.49848816 175.26084106 221.49569702 176.13775635 C221.43101595 189.5709605 220.49467293 202.33062572 217.06640625 215.37109375 C216.88980469 216.09731934 216.71320313 216.82354492 216.53125 217.57177734 C212.32311846 234.76667039 204.86817152 251.00615138 195.9140625 266.21875 C194.5321731 268.57643445 193.24018375 270.90677553 192.06640625 273.37109375 C192.47890625 273.89316406 192.89140625 274.41523438 193.31640625 274.953125 C198.05054367 280.98703675 202.58328278 287.14923267 207.06640625 293.37109375 C207.58847656 294.08007812 208.11054688 294.7890625 208.6484375 295.51953125 C213.83790761 302.6083175 213.6795846 308.77783709 213.06640625 317.37109375 C209.90585083 334.06872692 198.5096624 348.34761329 185.06640625 358.37109375 C172.4808668 366.66375742 161.49005716 369.59158028 146.56640625 369.43359375 C145.74398438 369.42908203 144.9215625 369.42457031 144.07421875 369.41992188 C142.07158229 369.40827864 140.06898398 369.39034931 138.06640625 369.37109375 C138.20272461 371.05513306 138.20272461 371.05513306 138.34179688 372.77319336 C138.68405589 377.02397108 139.01731236 381.2754186 139.34814453 385.52709961 C139.49127878 387.35118064 139.6367068 389.17508345 139.78466797 390.9987793 C140.53582235 400.27579135 141.20821965 409.54153823 141.3125 418.8515625 C141.32724365 419.53604965 141.3419873 420.2205368 141.35717773 420.92576599 C141.35717773 427.43676573 139.09371762 431.45155283 135.06640625 436.37109375 C134.3084375 437.34175781 133.55046875 438.31242187 132.76953125 439.3125 C125.96593684 447.83922698 125.96593684 447.83922698 123.06640625 450.37109375 C122.40640625 450.37109375 121.74640625 450.37109375 121.06640625 450.37109375 C120.73640625 451.36109375 120.40640625 452.35109375 120.06640625 453.37109375 C119.40640625 453.37109375 118.74640625 453.37109375 118.06640625 453.37109375 C117.73640625 454.36109375 117.40640625 455.35109375 117.06640625 456.37109375 C116.40640625 456.37109375 115.74640625 456.37109375 115.06640625 456.37109375 C114.73640625 457.36109375 114.40640625 458.35109375 114.06640625 459.37109375 C112.5078125 460.9765625 112.5078125 460.9765625 110.62890625 462.55859375 C109.70271484 463.35330078 109.70271484 463.35330078 108.7578125 464.1640625 C107.06640625 465.37109375 107.06640625 465.37109375 105.06640625 465.37109375 C105.06640625 466.03109375 105.06640625 466.69109375 105.06640625 467.37109375 C103.66796875 468.64868164 103.66796875 468.64868164 101.69140625 470.09375 C100.96123291 470.62806641 100.23105957 471.16238281 99.47875977 471.71289062 C98.68268311 472.28072266 97.88660645 472.84855469 97.06640625 473.43359375 C96.25421631 474.01560547 95.44202637 474.59761719 94.60522461 475.19726562 C87.06285959 480.51732012 79.27271805 485.15798022 71.06640625 489.37109375 C70.11636719 489.8609375 69.16632813 490.35078125 68.1875 490.85546875 C58.51852112 495.52424544 46.34728733 500.36050495 35.5234375 500.57983398 C34.62729736 500.5991246 33.73115723 500.61841522 32.80786133 500.63829041 C28.65711149 500.69695603 24.50652625 500.74547308 20.35546875 500.77612305 C18.19124181 500.797489 16.02709601 500.83132866 13.86328125 500.87866211 C-4.88283097 501.28411605 -21.15290124 498.45663152 -37.99609375 489.93359375 C-38.77936035 489.54872803 -39.56262695 489.1638623 -40.36962891 488.76733398 C-56.38723456 480.76516783 -70.07258978 469.70757369 -82.93359375 457.37109375 C-83.74642822 456.59910645 -83.74642822 456.59910645 -84.57568359 455.81152344 C-107.2632124 434.17111134 -107.2632124 434.17111134 -108.10449219 421.87280273 C-108.07626998 418.98603678 -107.93204017 416.12699591 -107.74609375 413.24609375 C-107.69074463 412.18527588 -107.63539551 411.12445801 -107.57836914 410.03149414 C-107.38518217 406.47639207 -107.16240007 402.92407613 -106.93359375 399.37109375 C-106.84780986 398.00668397 -106.76220273 396.64226308 -106.67675781 395.27783203 C-106.13238872 386.63961503 -105.54791188 378.0046331 -104.93359375 369.37109375 C-106.12855469 369.39429688 -107.32351562 369.4175 -108.5546875 369.44140625 C-128.68410675 369.72939289 -143.99442288 364.52657041 -158.93359375 350.37109375 C-159.63742188 349.70851563 -160.34125 349.0459375 -161.06640625 348.36328125 C-165.46647034 343.82517593 -168.67885788 338.76142604 -171.80859375 333.30859375 C-172.19031738 332.64786865 -172.57204102 331.98714355 -172.96533203 331.30639648 C-176.6030165 324.7027637 -178.21833578 318.35177873 -178.24609375 310.74609375 C-178.26285156 309.68132812 -178.27960938 308.6165625 -178.296875 307.51953125 C-177.39001418 299.66007083 -171.62883759 293.79477087 -166.93359375 287.74609375 C-166.20914063 286.80507813 -165.4846875 285.8640625 -164.73828125 284.89453125 C-163.39297096 283.14711715 -162.04555451 281.40132097 -160.6953125 279.65771484 C-159.09052788 277.57478625 -157.50590571 275.47859652 -155.93359375 273.37109375 C-157.47167591 270.15584754 -159.22926049 267.08141132 -161.00463867 263.99243164 C-176.34443949 237.20416485 -185.5333732 208.66942756 -185.37963867 177.67016602 C-185.37113211 175.07031742 -185.40003041 172.47268067 -185.43164062 169.87304688 C-185.574785 135.28504882 -172.34337065 98.10608418 -148.93359375 72.37109375 C-148.0141951 71.34386439 -147.09493047 70.31651506 -146.17578125 69.2890625 C-134.47445795 56.30288802 -134.47445795 56.30288802 -130.93359375 53.37109375 C-130.27359375 53.37109375 -129.61359375 53.37109375 -128.93359375 53.37109375 C-128.60359375 52.38109375 -128.27359375 51.39109375 -127.93359375 50.37109375 C-126.32983398 48.90405273 -126.32983398 48.90405273 -124.2421875 47.3671875 C-123.08493164 46.51096802 -123.08493164 46.51096802 -121.90429688 45.63745117 C-121.06833984 45.03392822 -120.23238281 44.43040527 -119.37109375 43.80859375 C-118.51064453 43.18380127 -117.65019531 42.55900879 -116.76367188 41.9152832 C-103.14236613 32.11774438 -89.30131377 24.12602456 -73.93359375 17.37109375 C-72.95374512 16.93821045 -72.95374512 16.93821045 -71.95410156 16.49658203 C-57.47313262 10.18543907 -42.27507835 5.6457918 -26.70703125 3.01171875 C-24.74116558 2.6779693 -22.77479599 2.33428951 -20.83229065 1.88407898 C-13.86176239 0.29641588 -7.13113449 0.03313189 0 0 Z " fill="#83F838" transform="translate(231.93359375,-0.37109375)"/>
<path d="M0 0 C1.23138199 -0.00902847 2.46276398 -0.01805695 3.73146057 -0.02735901 C6.33600458 -0.04181483 8.94058453 -0.05073657 11.54516602 -0.05444336 C15.43377452 -0.06619432 19.32071681 -0.11530662 23.20898438 -0.16601562 C44.88807905 -0.30732868 65.91382722 2.39739217 86.56640625 9.18359375 C87.62843262 9.52197266 88.69045898 9.86035156 89.78466797 10.20898438 C102.56322992 14.3729368 114.76050884 19.64469873 126.81640625 25.55859375 C127.44820801 25.86732422 128.08000977 26.17605469 128.73095703 26.49414062 C132.57355893 28.43657743 136.03061281 30.66134784 139.47875977 33.24047852 C141.27531759 34.56631347 141.27531759 34.56631347 144.25390625 36.12109375 C153.14146385 41.1005066 160.86380337 47.8627863 168.2331543 54.82836914 C170.92565889 57.4056526 170.92565889 57.4056526 174.06640625 59.37109375 C174.06640625 60.03109375 174.06640625 60.69109375 174.06640625 61.37109375 C174.72640625 61.37109375 175.38640625 61.37109375 176.06640625 61.37109375 C178.6488993 63.79547498 180.81953056 66.63873242 183.06640625 69.37109375 C183.48664063 69.88043457 183.906875 70.38977539 184.33984375 70.91455078 C208.65838322 100.56594915 221.7916309 135.21189092 221.50390625 173.55859375 C221.5011972 174.40971741 221.49848816 175.26084106 221.49569702 176.13775635 C221.43101595 189.5709605 220.49467293 202.33062572 217.06640625 215.37109375 C216.88980469 216.09731934 216.71320313 216.82354492 216.53125 217.57177734 C212.32311846 234.76667039 204.86817152 251.00615138 195.9140625 266.21875 C194.5321731 268.57643445 193.24018375 270.90677553 192.06640625 273.37109375 C192.47890625 273.89316406 192.89140625 274.41523438 193.31640625 274.953125 C198.05054367 280.98703675 202.58328278 287.14923267 207.06640625 293.37109375 C207.58847656 294.08007812 208.11054688 294.7890625 208.6484375 295.51953125 C213.83790761 302.6083175 213.6795846 308.77783709 213.06640625 317.37109375 C209.90585083 334.06872692 198.5096624 348.34761329 185.06640625 358.37109375 C172.4808668 366.66375742 161.49005716 369.59158028 146.56640625 369.43359375 C145.74398438 369.42908203 144.9215625 369.42457031 144.07421875 369.41992188 C142.07158229 369.40827864 140.06898398 369.39034931 138.06640625 369.37109375 C138.20272461 371.05513306 138.20272461 371.05513306 138.34179688 372.77319336 C138.68405589 377.02397108 139.01731236 381.2754186 139.34814453 385.52709961 C139.49127878 387.35118064 139.6367068 389.17508345 139.78466797 390.9987793 C140.53582235 400.27579135 141.20821965 409.54153823 141.3125 418.8515625 C141.32724365 419.53604965 141.3419873 420.2205368 141.35717773 420.92576599 C141.35717773 427.43676573 139.09371762 431.45155283 135.06640625 436.37109375 C134.3084375 437.34175781 133.55046875 438.31242187 132.76953125 439.3125 C125.96593684 447.83922698 125.96593684 447.83922698 123.06640625 450.37109375 C122.40640625 450.37109375 121.74640625 450.37109375 121.06640625 450.37109375 C120.73640625 451.36109375 120.40640625 452.35109375 120.06640625 453.37109375 C119.40640625 453.37109375 118.74640625 453.37109375 118.06640625 453.37109375 C117.73640625 454.36109375 117.40640625 455.35109375 117.06640625 456.37109375 C116.40640625 456.37109375 115.74640625 456.37109375 115.06640625 456.37109375 C114.73640625 457.36109375 114.40640625 458.35109375 114.06640625 459.37109375 C112.5078125 460.9765625 112.5078125 460.9765625 110.62890625 462.55859375 C109.70271484 463.35330078 109.70271484 463.35330078 108.7578125 464.1640625 C107.06640625 465.37109375 107.06640625 465.37109375 105.06640625 465.37109375 C105.06640625 466.03109375 105.06640625 466.69109375 105.06640625 467.37109375 C103.66796875 468.64868164 103.66796875 468.64868164 101.69140625 470.09375 C100.96123291 470.62806641 100.23105957 471.16238281 99.47875977 471.71289062 C98.68268311 472.28072266 97.88660645 472.84855469 97.06640625 473.43359375 C96.25421631 474.01560547 95.44202637 474.59761719 94.60522461 475.19726562 C87.06285959 480.51732012 79.27271805 485.15798022 71.06640625 489.37109375 C70.11636719 489.8609375 69.16632813 490.35078125 68.1875 490.85546875 C58.51852112 495.52424544 46.34728733 500.36050495 35.5234375 500.57983398 C34.62729736 500.5991246 33.73115723 500.61841522 32.80786133 500.63829041 C28.65711149 500.69695603 24.50652625 500.74547308 20.35546875 500.77612305 C18.19124181 500.797489 16.02709601 500.83132866 13.86328125 500.87866211 C-4.88283097 501.28411605 -21.15290124 498.45663152 -37.99609375 489.93359375 C-38.77936035 489.54872803 -39.56262695 489.1638623 -40.36962891 488.76733398 C-56.38723456 480.76516783 -70.07258978 469.70757369 -82.93359375 457.37109375 C-83.74642822 456.59910645 -83.74642822 456.59910645 -84.57568359 455.81152344 C-107.2632124 434.17111134 -107.2632124 434.17111134 -108.10449219 421.87280273 C-108.07626998 418.98603678 -107.93204017 416.12699591 -107.74609375 413.24609375 C-107.69074463 412.18527588 -107.63539551 411.12445801 -107.57836914 410.03149414 C-107.38518217 406.47639207 -107.16240007 402.92407613 -106.93359375 399.37109375 C-106.84780986 398.00668397 -106.76220273 396.64226308 -106.67675781 395.27783203 C-106.13238872 386.63961503 -105.54791188 378.0046331 -104.93359375 369.37109375 C-106.12855469 369.39429688 -107.32351562 369.4175 -108.5546875 369.44140625 C-128.68410675 369.72939289 -143.99442288 364.52657041 -158.93359375 350.37109375 C-159.63742188 349.70851563 -160.34125 349.0459375 -161.06640625 348.36328125 C-165.46647034 343.82517593 -168.67885788 338.76142604 -171.80859375 333.30859375 C-172.19031738 332.64786865 -172.57204102 331.98714355 -172.96533203 331.30639648 C-176.6030165 324.7027637 -178.21833578 318.35177873 -178.24609375 310.74609375 C-178.26285156 309.68132812 -178.27960938 308.6165625 -178.296875 307.51953125 C-177.39001418 299.66007083 -171.62883759 293.79477087 -166.93359375 287.74609375 C-166.20914063 286.80507813 -165.4846875 285.8640625 -164.73828125 284.89453125 C-163.39297096 283.14711715 -162.04555451 281.40132097 -160.6953125 279.65771484 C-159.09052788 277.57478625 -157.50590571 275.47859652 -155.93359375 273.37109375 C-157.47167591 270.15584754 -159.22926049 267.08141132 -161.00463867 263.99243164 C-176.34443949 237.20416485 -185.5333732 208.66942756 -185.37963867 177.67016602 C-185.37113211 175.07031742 -185.40003041 172.47268067 -185.43164062 169.87304688 C-185.574785 135.28504882 -172.34337065 98.10608418 -148.93359375 72.37109375 C-148.0141951 71.34386439 -147.09493047 70.31651506 -146.17578125 69.2890625 C-134.47445795 56.30288802 -134.47445795 56.30288802 -130.93359375 53.37109375 C-130.27359375 53.37109375 -129.61359375 53.37109375 -128.93359375 53.37109375 C-128.60359375 52.38109375 -128.27359375 51.39109375 -127.93359375 50.37109375 C-126.32983398 48.90405273 -126.32983398 48.90405273 -124.2421875 47.3671875 C-123.08493164 46.51096802 -123.08493164 46.51096802 -121.90429688 45.63745117 C-121.06833984 45.03392822 -120.23238281 44.43040527 -119.37109375 43.80859375 C-118.51064453 43.18380127 -117.65019531 42.55900879 -116.76367188 41.9152832 C-103.14236613 32.11774438 -89.30131377 24.12602456 -73.93359375 17.37109375 C-72.95374512 16.93821045 -72.95374512 16.93821045 -71.95410156 16.49658203 C-57.47313262 10.18543907 -42.27507835 5.6457918 -26.70703125 3.01171875 C-24.74116558 2.6779693 -22.77479599 2.33428951 -20.83229065 1.88407898 C-13.86176239 0.29641588 -7.13113449 0.03313189 0 0 Z M-38.93359375 28.37109375 C-40.14917969 28.69078125 -41.36476563 29.01046875 -42.6171875 29.33984375 C-50.36084191 31.44326795 -57.62722176 34.06462217 -64.93359375 37.37109375 C-65.62582031 37.67644043 -66.31804687 37.98178711 -67.03125 38.29638672 C-87.40699461 47.31780881 -104.63882603 59.1748497 -120.93359375 74.37109375 C-121.68511719 75.06847656 -122.43664062 75.76585937 -123.2109375 76.484375 C-148.61404423 100.9052878 -162.09532813 134.52000563 -163.171875 169.4296875 C-163.58586047 193.38490103 -158.5123109 215.07152039 -149.93359375 237.37109375 C-149.27359375 237.37109375 -148.61359375 237.37109375 -147.93359375 237.37109375 C-147.73765625 236.32953125 -147.54171875 235.28796875 -147.33984375 234.21484375 C-144.7310957 221.36154515 -140.23602533 210.01183506 -132.37109375 199.43359375 C-130.32779458 196.4852463 -129.5599467 194.71873147 -129.87109375 191.12109375 C-130.33610395 188.63117551 -130.96801272 186.25559503 -131.69140625 183.828125 C-133.88559505 175.93543617 -134.26181032 168.48183159 -134.30859375 160.30859375 C-134.32220947 159.22070557 -134.3358252 158.13281738 -134.34985352 157.01196289 C-134.29196982 146.4937816 -131.85398513 137.07872954 -127.93359375 127.37109375 C-127.27359375 127.37109375 -126.61359375 127.37109375 -125.93359375 127.37109375 C-125.92948486 128.22638672 -125.92537598 129.08167969 -125.92114258 129.96289062 C-125.75780195 149.37559776 -125.574533 166.34559095 -114.93359375 183.37109375 C-108.00359375 182.38109375 -108.00359375 182.38109375 -100.93359375 181.37109375 C-103.31690563 185.34328022 -104.96298515 187.60374601 -108.18359375 190.68359375 C-126.47071809 208.15763393 -126.47071809 208.15763393 -135.00674438 230.84832764 C-134.97174332 232.23776581 -134.97174332 232.23776581 -134.93603516 233.65527344 C-134.91336578 234.71027039 -134.89069641 235.76526733 -134.86734009 236.85223389 C-134.84021942 237.98767639 -134.81309875 239.1231189 -134.78515625 240.29296875 C-134.74814802 242.70439937 -134.7130519 245.11585996 -134.6796875 247.52734375 C-134.624224 251.32438468 -134.55862664 255.11982196 -134.46044922 258.91601562 C-134.36928468 262.58359823 -134.32339364 266.24950048 -134.28515625 269.91796875 C-134.2458902 271.04531433 -134.20662415 272.17265991 -134.16616821 273.33416748 C-134.14596035 279.0774253 -134.48547746 282.56276727 -138.33740234 286.98364258 C-139.51997964 288.12969942 -140.71706603 289.26114075 -141.93359375 290.37109375 C-143.96940913 292.8395199 -145.9560243 295.33721355 -147.9296875 297.85546875 C-149.25782195 299.52275644 -150.6253478 301.15946149 -152.03125 302.76171875 C-155.86753575 307.19945766 -155.86753575 307.19945766 -157.30859375 312.74609375 C-152.73264096 324.8099693 -142.84806602 337.56416127 -131.18359375 343.49609375 C-130.590625 343.80804688 -129.99765625 344.12 -129.38671875 344.44140625 C-120.97405853 347.62964372 -112.72380966 347.64746526 -103.80859375 347.55859375 C-101.95427734 347.55762695 -101.95427734 347.55762695 -100.0625 347.55664062 C-94.24534348 347.52852333 -88.68379574 347.32208869 -82.93359375 346.37109375 C-80.7277361 346.23740541 -78.51827231 346.15273593 -76.30859375 346.12109375 C-75.22320312 346.0953125 -74.1378125 346.06953125 -73.01953125 346.04296875 C-69.27708644 346.44089959 -67.75364113 346.84148314 -64.93359375 349.37109375 C-59.81479557 357.40761754 -60.30226252 366.76787164 -60.24609375 375.93359375 C-60.21700531 378.1387862 -60.18257223 380.34377358 -60.14360046 382.54881287 C-60.11101814 384.52532387 -60.09284596 386.50205686 -60.07543945 388.47875977 C-60.26332282 391.26523858 -60.26332282 391.26523858 -58.93359375 392.37109375 C-57.41431337 392.44289339 -55.89191893 392.45501382 -54.37109375 392.43359375 C-53.54480469 392.42457031 -52.71851563 392.41554688 -51.8671875 392.40625 C-51.22910156 392.39464844 -50.59101563 392.38304687 -49.93359375 392.37109375 C-48.15957743 387.74134384 -47.53717754 383.41064532 -47.30859375 378.49609375 C-47.26992187 377.80773437 -47.23125 377.119375 -47.19140625 376.41015625 C-47.09811209 374.73086129 -47.01481137 373.05101608 -46.93359375 371.37109375 C-45.61359375 371.37109375 -44.29359375 371.37109375 -42.93359375 371.37109375 C-42.90386475 372.71856689 -42.90386475 372.71856689 -42.87353516 374.09326172 C-42.79550114 377.42199453 -42.70881261 380.75026631 -42.61621094 384.07861328 C-42.57789701 385.51993115 -42.54304832 386.96134543 -42.51171875 388.40283203 C-42.46611929 390.47333261 -42.40811931 392.54316808 -42.34765625 394.61328125 C-42.3005249 396.48282471 -42.3005249 396.48282471 -42.25244141 398.39013672 C-42.23677066 401.48651151 -42.23677066 401.48651151 -39.93359375 403.37109375 C-36.35015399 403.53786657 -36.35015399 403.53786657 -32.93359375 403.37109375 C-32.91377441 402.80600098 -32.89395508 402.2409082 -32.87353516 401.65869141 C-32.77841139 399.10401378 -32.66868317 396.55016834 -32.55859375 393.99609375 C-32.52765625 393.10664063 -32.49671875 392.2171875 -32.46484375 391.30078125 C-32.40683594 390.02460937 -32.40683594 390.02460937 -32.34765625 388.72265625 C-32.31623535 387.93713379 -32.28481445 387.15161133 -32.25244141 386.34228516 C-31.93359375 384.37109375 -31.93359375 384.37109375 -29.93359375 382.37109375 C-26.87109375 382.18359375 -26.87109375 382.18359375 -23.93359375 382.37109375 C-22.15868829 384.14599921 -22.69859402 386.74894277 -22.6171875 389.15625 C-22.57529297 390.32607422 -22.53339844 391.49589844 -22.49023438 392.70117188 C-22.45091797 393.93287109 -22.41160156 395.16457031 -22.37109375 396.43359375 C-22.32791016 397.66916016 -22.28472656 398.90472656 -22.24023438 400.17773438 C-22.13375177 403.2420671 -22.03173951 406.30648448 -21.93359375 409.37109375 C-18.96359375 409.37109375 -15.99359375 409.37109375 -12.93359375 409.37109375 C-12.91377441 408.65453613 -12.89395508 407.93797852 -12.87353516 407.19970703 C-12.77849856 403.96478745 -12.66873356 400.73053281 -12.55859375 397.49609375 C-12.52765625 396.36816406 -12.49671875 395.24023438 -12.46484375 394.078125 C-12.40683594 392.46357422 -12.40683594 392.46357422 -12.34765625 390.81640625 C-12.31623535 389.82141113 -12.28481445 388.82641602 -12.25244141 387.80126953 C-11.93359375 385.37109375 -11.93359375 385.37109375 -9.93359375 383.37109375 C-6.53762312 383.15432967 -4.1758093 383.29035523 -0.93359375 384.37109375 C-0.86414033 394.35878995 -0.81080622 404.34642887 -0.77815723 414.33431721 C-0.76248881 418.97190685 -0.74122917 423.6093315 -0.70727539 428.24682617 C-0.67472375 432.72071648 -0.6567496 437.19444792 -0.64896202 441.66844749 C-0.64341095 443.37692962 -0.63257125 445.08540287 -0.61640358 446.79381752 C-0.59468471 449.18345687 -0.59162444 451.57243633 -0.59301758 453.9621582 C-0.58223175 454.67137924 -0.57144592 455.38060028 -0.56033325 456.11131287 C-0.57856523 458.9938346 -0.61113831 460.91159213 -2.29472351 463.31071472 C-4.63941724 464.82777446 -6.20575851 464.79076071 -8.93359375 464.37109375 C-10.93278727 461.37230348 -11.19855332 460.64881796 -11.34423828 457.2668457 C-11.40407394 456.03590935 -11.40407394 456.03590935 -11.46511841 454.78010559 C-11.4985434 453.8987645 -11.53196838 453.0174234 -11.56640625 452.109375 C-11.60796844 451.203582 -11.64953064 450.297789 -11.69235229 449.36454773 C-11.82311446 446.47120476 -11.9410041 443.5774991 -12.05859375 440.68359375 C-12.14498619 438.72196772 -12.2322155 436.76037835 -12.3203125 434.79882812 C-12.53445299 429.98995495 -12.73705044 425.18071698 -12.93359375 420.37109375 C-16.23359375 420.37109375 -19.53359375 420.37109375 -22.93359375 420.37109375 C-22.92312012 421.36028809 -22.91264648 422.34948242 -22.90185547 423.36865234 C-22.86570356 427.03251539 -22.84271093 430.69636261 -22.82373047 434.36035156 C-22.81366187 435.94729258 -22.80000608 437.534215 -22.78271484 439.12109375 C-22.75850374 441.39978622 -22.74711953 443.67823381 -22.73828125 445.95703125 C-22.72795868 446.6685434 -22.71763611 447.38005554 -22.70700073 448.11312866 C-22.70659953 449.8674104 -22.81157166 451.62106084 -22.93359375 453.37109375 C-24.93359375 455.37109375 -24.93359375 455.37109375 -27.55859375 455.49609375 C-28.34234375 455.45484375 -29.12609375 455.41359375 -29.93359375 455.37109375 C-30.25141692 453.89306171 -30.5624824 452.41357663 -30.87109375 450.93359375 C-31.04511719 450.10988281 -31.21914062 449.28617187 -31.3984375 448.4375 C-32.73664468 440.76967055 -33.16637169 433.07598072 -33.49609375 425.30859375 C-33.53927734 424.34759766 -33.58246094 423.38660156 -33.62695312 422.39648438 C-33.73180507 420.05479098 -33.83397163 417.71301446 -33.93359375 415.37109375 C-36.57359375 415.37109375 -39.21359375 415.37109375 -41.93359375 415.37109375 C-41.93359375 424.28109375 -41.93359375 433.19109375 -41.93359375 442.37109375 C-43.58359375 442.70109375 -45.23359375 443.03109375 -46.93359375 443.37109375 C-49.62665261 436.57990183 -51.06925661 430.68968927 -51.03125 423.31640625 C-51.02641602 421.65351562 -51.02641602 421.65351562 -51.02148438 419.95703125 C-51.00891602 418.24386719 -51.00891602 418.24386719 -50.99609375 416.49609375 C-50.99158203 415.33078125 -50.98707031 414.16546875 -50.98242188 412.96484375 C-50.97068156 410.1002073 -50.95425945 407.23567742 -50.93359375 404.37109375 C-53.57359375 404.37109375 -56.21359375 404.37109375 -58.93359375 404.37109375 C-59.42859375 417.24109375 -59.42859375 417.24109375 -59.93359375 430.37109375 C-61.25359375 430.37109375 -62.57359375 430.37109375 -63.93359375 430.37109375 C-67.67818037 423.49732611 -67.87902384 416.23758622 -68.49609375 408.55859375 C-68.61863597 407.13989493 -68.74210009 405.72127545 -68.86645508 404.30273438 C-69.2397704 399.99356197 -69.58916738 395.68265845 -69.93359375 391.37109375 C-69.98793579 390.69661194 -70.04227783 390.02213013 -70.0982666 389.32720947 C-70.74133943 381.34405941 -71.35228443 373.35896764 -71.93359375 365.37109375 C-75.89359375 365.37109375 -79.85359375 365.37109375 -83.93359375 365.37109375 C-84.32406415 370.53088119 -84.58920641 375.68783961 -84.79150391 380.85839844 C-84.89586423 383.43835771 -85.01376617 386.01597684 -85.14208984 388.59472656 C-85.3306534 392.51384925 -85.45556986 396.43191792 -85.55029297 400.35437012 C-85.59699225 401.93192003 -85.66154935 403.50905605 -85.74511719 405.08508301 C-86.24632316 414.85186832 -85.5469911 421.43340655 -79.04333496 429.02519226 C-77.70137517 430.49975916 -76.31803336 431.93633573 -74.93359375 433.37109375 C-74.205354 434.17514648 -73.47711426 434.97919922 -72.72680664 435.80761719 C-70.74507906 437.95391318 -68.70818987 440.0149788 -66.62109375 442.05859375 C-65.88890625 442.77990479 -65.15671875 443.50121582 -64.40234375 444.24438477 C-41.96178934 466.03629749 -13.93695577 480.81604733 17.8515625 480.59375 C53.25954871 479.26123644 82.96974052 460.15571503 106.52636719 434.97119141 C108.0019368 433.43807739 109.53865544 432.00902479 111.10546875 430.5703125 C116.90701178 424.81347314 118.59238324 419.77323204 118.79174805 411.60180664 C118.73969305 407.07167877 118.54379009 402.5617537 118.27490234 398.03955078 C118.05555751 394.1802119 117.92059591 390.32470875 117.8046875 386.4609375 C117.60235055 379.76203434 117.34749967 373.06714061 117.06640625 366.37109375 C113.10640625 366.04109375 109.14640625 365.71109375 105.06640625 365.37109375 C105.01629395 366.3161377 104.96618164 367.26118164 104.91455078 368.23486328 C104.38042649 378.23286505 103.80512881 388.22797082 103.19598389 398.22167969 C103.07901786 400.16189431 102.96717752 402.10241629 102.85595703 404.04296875 C102.67876339 407.02956073 102.47285504 410.01231724 102.25390625 412.99609375 C102.20830566 413.83285645 102.16270508 414.66961914 102.11572266 415.53173828 C101.62689107 421.5294679 99.78358408 426.57094797 96.06640625 431.37109375 C95.07640625 431.70109375 94.08640625 432.03109375 93.06640625 432.37109375 C91.96782901 426.20349085 91.95101521 420.18694252 92.00390625 413.93359375 C92.00841797 412.91587891 92.01292969 411.89816406 92.01757812 410.84960938 C92.02928188 408.35670866 92.04567777 405.86393301 92.06640625 403.37109375 C89.09640625 403.37109375 86.12640625 403.37109375 83.06640625 403.37109375 C83.07687988 404.2024585 83.08735352 405.03382324 83.09814453 405.89038086 C83.13251195 409.01585846 83.15744284 412.14123877 83.17626953 415.2668457 C83.1911087 417.26845752 83.21653986 419.26998187 83.2421875 421.27148438 C83.32073137 436.8624435 83.32073137 436.8624435 80.06640625 443.37109375 C78.41640625 443.70109375 76.76640625 444.03109375 75.06640625 444.37109375 C75.06640625 434.47109375 75.06640625 424.57109375 75.06640625 414.37109375 C72.09640625 414.37109375 69.12640625 414.37109375 66.06640625 414.37109375 C66.01033203 416.31435547 66.01033203 416.31435547 65.953125 418.296875 C65.62700381 427.65867996 65.05212433 436.86420245 63.56640625 446.12109375 C63.43580811 446.93618408 63.30520996 447.75127441 63.1706543 448.59106445 C62.21131716 454.22618284 62.21131716 454.22618284 61.06640625 455.37109375 C58.56640625 455.49609375 58.56640625 455.49609375 56.06640625 455.37109375 C55.06640625 454.37109375 55.06640625 454.37109375 54.95288086 451.13647461 C54.95303994 449.70295249 54.95873218 448.26942463 54.96875 446.8359375 C54.97087242 445.70606163 54.97087242 445.70606163 54.97303772 444.55335999 C54.97865249 442.13839815 54.99120742 439.72352774 55.00390625 437.30859375 C55.00891935 435.67513154 55.01348259 434.04166789 55.01757812 432.40820312 C55.02862671 428.3957979 55.04590119 424.38346134 55.06640625 420.37109375 C51.76640625 420.37109375 48.46640625 420.37109375 45.06640625 420.37109375 C45.02882202 421.79989868 45.02882202 421.79989868 44.99047852 423.25756836 C44.89548811 426.83043242 44.79550077 430.40314292 44.6940918 433.97583008 C44.65108606 435.51485574 44.60939096 437.05391866 44.5690918 438.59301758 C44.09088859 456.78245055 44.09088859 456.78245055 43.06640625 462.37109375 C40.06640625 464.37109375 40.06640625 464.37109375 36.94140625 464.12109375 C35.99265625 463.87359375 35.04390625 463.62609375 34.06640625 463.37109375 C32.56978363 460.37784852 32.93079135 457.64534551 32.92114258 454.30688477 C32.91778397 453.5798938 32.91442535 452.85290283 32.91096497 452.10388184 C32.90144513 449.69423731 32.89951137 447.28466218 32.8984375 444.875 C32.89522573 443.20352652 32.89186172 441.53205332 32.88835144 439.86058044 C32.88235765 436.35423124 32.88051181 432.8479067 32.88110352 429.34155273 C32.88120517 424.84437699 32.8675503 420.34735901 32.85033131 415.85022068 C32.83922344 412.39730602 32.83718393 408.94442965 32.83771324 405.49149895 C32.83653139 403.8332763 32.83209818 402.17505272 32.82438087 400.51684761 C32.814605 398.19935111 32.81744933 395.88219908 32.82348633 393.56469727 C32.82206131 392.24502457 32.82063629 390.92535187 32.81916809 389.56568909 C33.06640625 386.37109375 33.06640625 386.37109375 35.06640625 383.37109375 C38.56640625 383.05859375 38.56640625 383.05859375 42.06640625 383.37109375 C44.70631893 386.01100643 44.36881422 387.35055671 44.48046875 391.03515625 C44.53847656 392.71738281 44.53847656 392.71738281 44.59765625 394.43359375 C44.62859375 395.60921875 44.65953125 396.78484375 44.69140625 397.99609375 C44.73007812 399.17945313 44.76875 400.3628125 44.80859375 401.58203125 C44.9030947 404.51156066 44.98865183 407.44107972 45.06640625 410.37109375 C48.03640625 410.37109375 51.00640625 410.37109375 54.06640625 410.37109375 C54.0914624 409.5939502 54.11651855 408.81680664 54.14233398 408.01611328 C54.25807421 404.50926306 54.38089977 401.0026963 54.50390625 397.49609375 C54.54322266 396.27277344 54.58253906 395.04945313 54.62304688 393.7890625 C54.68588867 392.03916016 54.68588867 392.03916016 54.75 390.25390625 C54.80498657 388.63572998 54.80498657 388.63572998 54.86108398 386.98486328 C55.06640625 384.37109375 55.06640625 384.37109375 56.06640625 382.37109375 C58.70640625 382.37109375 61.34640625 382.37109375 64.06640625 382.37109375 C64.39640625 389.30109375 64.72640625 396.23109375 65.06640625 403.37109375 C67.37640625 403.37109375 69.68640625 403.37109375 72.06640625 403.37109375 C74.73109982 400.70640018 74.35731179 399.31552906 74.4453125 395.59375 C74.47947266 394.44068359 74.51363281 393.28761719 74.54882812 392.09960938 C74.57525391 390.88982422 74.60167969 389.68003906 74.62890625 388.43359375 C74.68879837 386.04937774 74.75242635 383.66525179 74.8203125 381.28125 C74.85620483 379.69002319 74.85620483 379.69002319 74.89282227 378.06665039 C75.06640625 375.37109375 75.06640625 375.37109375 76.06640625 372.37109375 C78.12890625 371.68359375 78.12890625 371.68359375 80.06640625 371.37109375 C80.02515625 372.42296875 79.98390625 373.47484375 79.94140625 374.55859375 C79.91972306 380.57567964 81.05664333 386.45676805 82.06640625 392.37109375 C83.54547517 392.39798591 85.02468108 392.41743996 86.50390625 392.43359375 C87.73947266 392.45099609 87.73947266 392.45099609 89 392.46875 C91.05804563 392.60376723 91.05804563 392.60376723 92.06640625 391.37109375 C92.18813741 389.65913158 92.24613593 387.94256338 92.27734375 386.2265625 C92.30570313 385.15599609 92.3340625 384.08542969 92.36328125 382.98242188 C92.4143808 380.74298394 92.4589201 378.50338425 92.49609375 376.26367188 C92.77425087 366.51078791 93.55914938 356.09846129 100.06640625 348.37109375 C103.8168511 345.87079718 105.84682801 346.13462427 110.31640625 346.18359375 C111.6003125 346.19003906 112.88421875 346.19648438 114.20703125 346.203125 C118.06640625 346.37109375 118.06640625 346.37109375 121.2578125 346.8671875 C126.75719574 347.59479821 132.21233527 347.59574637 137.75390625 347.62109375 C138.86185547 347.64171875 139.96980469 347.66234375 141.11132812 347.68359375 C150.92852032 347.72949529 160.38754041 346.43878624 169.00390625 341.43359375 C169.85855469 340.95019531 170.71320313 340.46679688 171.59375 339.96875 C180.52335863 334.19906607 187.624225 325.02800951 192.06640625 315.37109375 C192.66218518 312.19047867 192.5402872 310.17175895 190.87719727 307.36181641 C189.17590517 305.0508142 187.39461043 302.83301226 185.56640625 300.62109375 C184.92944824 299.81978027 184.29249023 299.0184668 183.63623047 298.19287109 C180.9631462 294.84319421 178.26929445 291.53821791 175.35546875 288.39453125 C171.44106261 284.05618221 169.60188796 281.3253671 169.50390625 275.37109375 C169.68466857 272.66350488 169.99271842 269.98617041 170.31542969 267.29248047 C171.15837015 259.69818227 171.35765001 252.13313979 171.44140625 244.49609375 C171.47878906 243.21089844 171.51617187 241.92570313 171.5546875 240.6015625 C171.75148406 219.0632725 157.68269594 204.50198119 143.54394531 189.87011719 C142.29128167 188.599239 141.00632446 187.36031809 139.71484375 186.12890625 C138.06640625 184.37109375 138.06640625 184.37109375 137.06640625 181.37109375 C138.4625369 181.51405266 139.85829933 181.66060933 141.25390625 181.80859375 C142.41986328 181.93041016 142.41986328 181.93041016 143.609375 182.0546875 C146.12642621 182.37882287 148.58412055 182.8464188 151.06640625 183.37109375 C156.0982221 175.59590433 159.45800089 168.51425962 161.06640625 159.37109375 C161.25332031 158.3759375 161.44023437 157.38078125 161.6328125 156.35546875 C162.4284659 150.59250696 162.17006311 144.73671128 162.12890625 138.93359375 C162.12213867 137.12084961 162.12213867 137.12084961 162.11523438 135.27148438 C162.1035077 132.30463586 162.08709521 129.33789105 162.06640625 126.37109375 C164.76452475 128.91780836 165.88924588 130.97284848 167.12890625 134.49609375 C167.61037109 135.83027344 167.61037109 135.83027344 168.1015625 137.19140625 C170.35294948 144.61095686 171.4538326 151.54797363 171.44140625 159.30859375 C171.44197021 160.21230713 171.44253418 161.11602051 171.44311523 162.04711914 C171.31845922 169.83914196 169.99008603 177.06397235 168.0390625 184.5859375 C166.05053356 190.78672052 166.05053356 190.78672052 167.25390625 196.8359375 C167.85203125 197.65191406 168.45015625 198.46789062 169.06640625 199.30859375 C177.06976121 211.12231094 181.43035525 223.68144552 185.06640625 237.37109375 C188.33477591 232.46853926 190.03462012 226.87949172 192.06640625 221.37109375 C192.50533203 220.18386719 192.50533203 220.18386719 192.953125 218.97265625 C197.93161791 204.80107324 199.25332566 190.77266801 199.25170898 175.87988281 C199.25388807 173.63977835 199.27207828 171.40017358 199.29101562 169.16015625 C199.33813144 157.44167559 198.27333926 146.19243797 194.81640625 134.93359375 C194.59952148 134.21896973 194.38263672 133.5043457 194.15917969 132.76806641 C182.1023124 94.17065555 152.8588994 64.31264619 117.59765625 45.65625 C110.84466303 42.19313891 103.92881094 39.10981928 96.9375 36.16259766 C95.40065575 35.51248687 93.87279759 34.84117266 92.34765625 34.1640625 C69.37611229 24.29101878 43.03031429 20.98963854 18.24047852 21.05541992 C15.76598882 21.05857833 13.29270267 21.03500652 10.81835938 21.00976562 C-6.28439283 20.94237323 -22.47286122 23.87716057 -38.93359375 28.37109375 Z " fill="#020402" transform="translate(231.93359375,-0.37109375)"/>
<path d="M0 0 C10.0069318 8.67703455 16.43916379 24.03205248 18 37 C18.30235753 41.43909349 18.40533099 45.86380688 18.4375 50.3125 C18.44773193 51.40981445 18.45796387 52.50712891 18.46850586 53.63769531 C18.33867337 65.63312804 15.39509586 75.02990648 7.21875 83.94140625 C-4.6405037 95.19311622 -22.01502768 98.53730273 -37.82421875 98.28125 C-54.55790702 97.62386684 -78.52930076 95.56712218 -91 83 C-98.52050331 74.1004313 -97.3460773 61.93347926 -97 51 C-98.89298828 51.05800781 -98.89298828 51.05800781 -100.82421875 51.1171875 C-104.18192889 51.22007954 -104.85844298 51.09437134 -107.8125 49.125 C-114.51831787 39.54526018 -113.81216056 28.33155739 -112 17.25 C-111.67657985 15.49814084 -111.34699018 13.74734339 -111 12 C-109.68 12 -108.36 12 -107 12 C-106.82984375 12.7734375 -106.6596875 13.546875 -106.484375 14.34375 C-104.07150521 25.05792285 -104.07150521 25.05792285 -98 34 C-92.59271174 33.76583893 -89.27762776 32.28858809 -84.8671875 29.24609375 C-84.02935226 28.67738304 -84.02935226 28.67738304 -83.17459106 28.09718323 C-81.39959719 26.88913475 -79.6370666 25.66430737 -77.875 24.4375 C-75.56318234 22.84804441 -73.24692607 21.26513339 -70.9296875 19.68359375 C-70.35632156 19.29155762 -69.78295563 18.89952148 -69.19221497 18.49560547 C-60.49865317 12.58033073 -51.65853711 6.96933772 -42.0625 2.625 C-41.36060547 2.29628906 -40.65871094 1.96757812 -39.93554688 1.62890625 C-28.28570115 -3.75465202 -11.18664661 -8.68143307 0 0 Z " fill="#010201" transform="translate(371,212)"/>
<path d="M0 0 C3.92269086 2.75545995 6.26239452 4.0086691 11.19042969 3.86425781 C13.38256347 3.60881624 13.38256347 3.60881624 15.43261719 1.42675781 C18.94592357 -4.68899774 20.7963886 -10.64292679 22.12011719 -17.51074219 C24.10011719 -17.01574219 24.10011719 -17.01574219 26.12011719 -16.51074219 C28.91814564 -5.8932235 30.60708088 7.46369453 25.12011719 17.48925781 C23.83886719 19.21191406 23.83886719 19.21191406 22.12011719 20.48925781 C19.63964844 20.78222656 19.63964844 20.78222656 16.93261719 20.67675781 C16.0315625 20.6496875 15.13050781 20.62261719 14.20214844 20.59472656 C13.51507813 20.55992187 12.82800781 20.52511719 12.12011719 20.48925781 C12.17232422 22.37257813 12.17232422 22.37257813 12.22558594 24.29394531 C12.61098368 43.88271466 12.61098368 43.88271466 7.05761719 52.80175781 C-6.83309669 65.51028327 -30.52016408 68.02430576 -48.44238281 67.92675781 C-49.74884766 67.94673828 -51.0553125 67.96671875 -52.40136719 67.98730469 C-66.01943494 67.9805194 -79.62521338 64.58686247 -90.16503906 55.52441406 C-98.18231055 47.2374026 -101.47363281 37.6496002 -101.47363281 26.24023438 C-101.44269531 25.06428711 -101.41175781 23.88833984 -101.37988281 22.67675781 C-101.35925781 21.44280273 -101.33863281 20.20884766 -101.31738281 18.9375 C-100.89118989 2.1073191 -97.54573493 -15.59390157 -85.38378906 -28.25292969 C-61.12984976 -48.53804256 -19.78474179 -13.97272509 0 0 Z " fill="#010201" transform="translate(211.8798828125,241.5107421875)"/>
<path d="M0 0 C5.09886416 0.9565569 7.66194939 3.57012052 10.89453125 7.44921875 C13.50169508 11.33552233 15.37172061 15.5330074 17.37109375 19.75390625 C18.90477173 22.73633542 20.72314438 25.41389714 22.66796875 28.14453125 C33.95425865 44.07549253 33.95425865 44.07549253 33.14453125 55.28515625 C31.72442095 61.27624658 29.51074022 64.99577769 24.39453125 68.44921875 C21.66636003 69.35860916 19.84743348 69.64130949 17.01953125 69.69921875 C16.26929688 69.725 15.5190625 69.75078125 14.74609375 69.77734375 C11.60289872 69.3387584 9.9264149 68.37120333 7.39453125 66.44921875 C5.19084636 63.38375764 3.29889011 60.20639601 1.359375 56.96875 C0.38677734 55.72158203 0.38677734 55.72158203 -0.60546875 54.44921875 C-1.92546875 54.44921875 -3.24546875 54.44921875 -4.60546875 54.44921875 C-6.45861656 56.52028867 -6.45861656 56.52028867 -8.04296875 59.19921875 C-13.02258491 66.61611539 -13.02258491 66.61611539 -16.60546875 68.44921875 C-20.95435645 69.28182631 -24.80737835 69.47011257 -28.73828125 67.23828125 C-32.88674316 63.81883775 -35.25819053 60.8340674 -36.046875 55.41796875 C-36.38371817 45.76904195 -34.06619893 40.26555803 -28.60546875 32.44921875 C-27.45106313 30.68396172 -26.30509718 28.91315441 -25.16796875 27.13671875 C-24.59304687 26.24984375 -24.018125 25.36296875 -23.42578125 24.44921875 C-20.92963186 20.33539314 -18.73378504 16.07355474 -16.62133789 11.75073242 C-12.77452217 4.18590287 -8.88714101 -0.59958223 0 0 Z " fill="#020402" transform="translate(250.60546875,288.55078125)"/>
<path d="M0 0 C2.76016086 -0.00435014 5.51868687 -0.04073598 8.27856445 -0.07861328 C21.16866871 -0.15891429 33.17201086 1.51964547 45.72583008 4.37060547 C47.16405973 4.69044216 48.60229197 5.0102672 50.04052734 5.33007812 C52.94229496 5.98589746 55.83633645 6.66297438 58.72583008 7.37060547 C58.72583008 8.69060547 58.72583008 10.01060547 58.72583008 11.37060547 C57.26759796 11.39760977 55.80922332 11.41700334 54.35083008 11.43310547 C53.5387207 11.44470703 52.72661133 11.45630859 51.88989258 11.46826172 C49.72583008 11.37060547 49.72583008 11.37060547 47.72583008 10.37060547 C38.93993482 9.15076946 30.02686539 9.18431723 21.1730957 9.18530273 C18.99255652 9.1831222 16.81253009 9.16490315 14.63208008 9.14599609 C0.96676044 9.08997609 -12.23583535 10.63788207 -25.58666992 13.62060547 C-26.55451416 13.83458984 -27.5223584 14.04857422 -28.51953125 14.26904297 C-41.33829894 17.19160863 -53.75131661 21.07024398 -65.80541992 26.33544922 C-68.91693145 27.64011782 -72.00461545 28.55321685 -75.27416992 29.37060547 C-75.27416992 30.03060547 -75.27416992 30.69060547 -75.27416992 31.37060547 C-76.18166992 31.72123047 -77.08916992 32.07185547 -78.02416992 32.43310547 C-96.1901532 40.33766506 -113.81931088 54.03556028 -126.27416992 69.37060547 C-127.05791992 70.32837891 -127.84166992 71.28615234 -128.64916992 72.27294922 C-135.99947328 81.43644988 -142.66602393 91.09514924 -146.27416992 102.37060547 C-147.25904994 104.71036097 -148.25973104 107.04351325 -149.27416992 109.37060547 C-156.97330563 127.73493736 -160.74187922 146.56517644 -162.27416992 166.37060547 C-166.02416992 167.49560547 -166.02416992 167.49560547 -168.27416992 166.37060547 C-168.29898811 161.63835019 -168.31708576 156.90613326 -168.32910156 152.17382812 C-168.33411367 150.56574849 -168.34092511 148.95767337 -168.34960938 147.34960938 C-168.36181218 145.03107585 -168.36742957 142.71260288 -168.37182617 140.39404297 C-168.37698746 139.68130219 -168.38214874 138.9685614 -168.38746643 138.23422241 C-168.38791747 134.17204118 -168.06192599 130.35572441 -167.27416992 126.37060547 C-166.61416992 126.37060547 -165.95416992 126.37060547 -165.27416992 126.37060547 C-165.23678711 125.65775391 -165.1994043 124.94490234 -165.16088867 124.21044922 C-164.74780739 118.19242191 -163.87666484 113.7837949 -161.27416992 108.37060547 C-161.00604492 107.31873047 -160.73791992 106.26685547 -160.46166992 105.18310547 C-159.04298509 100.6283805 -156.96227743 96.64641902 -154.77416992 92.41748047 C-153.45581184 89.73956561 -152.40022649 87.11463907 -151.39916992 84.30810547 C-149.05610707 78.25680679 -145.24607653 73.4470386 -141.27416992 68.37060547 C-140.66702148 67.55849609 -140.05987305 66.74638672 -139.43432617 65.90966797 C-135.47672193 60.73884467 -131.14341339 56.01124682 -126.58666992 51.37060547 C-126.03986572 50.80615723 -125.49306152 50.24170898 -124.9296875 49.66015625 C-121.91193928 46.64745827 -119.46323105 44.61411155 -115.27416992 43.37060547 C-115.27416992 42.71060547 -115.27416992 42.05060547 -115.27416992 41.37060547 C-112.60650776 38.99451417 -109.61839158 37.0060987 -106.71166992 34.93310547 C-105.91180664 34.34722656 -105.11194336 33.76134766 -104.2878418 33.15771484 C-99.75587739 29.89840003 -95.47379099 27.46848726 -90.27416992 25.37060547 C-88.39867305 24.34365067 -86.56814865 23.25500617 -84.73144531 22.16040039 C-77.5396765 17.88050404 -70.59054148 14.85025226 -62.59448242 12.42138672 C-59.8016036 11.53752271 -57.32983586 10.53536618 -54.71166992 9.24560547 C-49.83090622 6.9356257 -44.69228066 6.06926204 -39.41088867 5.08154297 C-36.41052494 4.54705153 -36.41052494 4.54705153 -34.44897461 3.39501953 C-24.52713629 -1.2785361 -10.74037595 -0.00188378 0 0 Z " fill="#BCFD72" transform="translate(242.274169921875,27.62939453125)"/>
<path d="M0 0 C2.82529272 0.1614453 3.80449542 0.78396298 5.7109375 2.890625 C6.26007813 3.66921875 6.80921875 4.4478125 7.375 5.25 C15.22930257 16.34280647 28.34254396 22.3233786 41.4609375 24.57421875 C53.78010139 25.98024141 66.79361636 25.76483444 79.08789062 24.21826172 C81.58693655 23.9330029 84.04918661 23.90210122 86.5625 23.9375 C87.40941406 23.94652344 88.25632812 23.95554687 89.12890625 23.96484375 C90.05509766 23.98224609 90.05509766 23.98224609 91 24 C91 24.99 91 25.98 91 27 C89.0848421 27.81604999 87.16781166 28.62770632 85.25 29.4375 C84.18265625 29.88996094 83.1153125 30.34242188 82.015625 30.80859375 C77.09719701 32.75175507 73.31952612 33.10229858 68 33 C68 33.66 68 34.32 68 35 C69.07314453 35.37318359 69.07314453 35.37318359 70.16796875 35.75390625 C79.66871422 39.93423426 86.68204259 48.32632615 92 57 C93.28317892 60.84953676 93.06643637 63.94738135 93 68 C91.68 68.33 90.36 68.66 89 69 C88.64808594 68.5153125 88.29617187 68.030625 87.93359375 67.53125 C72.65744725 46.79079 56.22275872 39.67246157 31.75390625 33.71875 C30.00251522 33.29203156 28.25121209 32.8649522 26.5 32.4375 C25.23482544 32.1295752 25.23482544 32.1295752 23.9440918 31.81542969 C18.07888638 30.35538649 12.48194111 28.58228278 7 26 C7.433125 26.47050781 7.86625 26.94101562 8.3125 27.42578125 C8.869375 28.04839844 9.42625 28.67101562 10 29.3125 C10.556875 29.92738281 11.11375 30.54226563 11.6875 31.17578125 C13 33 13 33 13 36 C6.57662731 35.83529814 2.51276538 32.19532751 -2 28 C-5.10388354 24.3279192 -6.78612791 20.74662208 -7.375 15.9375 C-6.80888143 9.99325502 -4.26108982 4.26108982 0 0 Z " fill="#080B06" transform="translate(102,296)"/>
<path d="M0 0 C2.58125556 0.36402322 3.73178733 0.69649619 5.484375 2.6796875 C8.98464565 8.75114461 10.38045003 14.02721591 9 21 C5.99575999 28.34110011 -0.03808338 33.4271352 -7 37 C-8.32 37 -9.64 37 -11 37 C-10.16609275 31.78514339 -6.43829908 28.75087173 -3 25 C-3.82064941 25.38816895 -4.64129883 25.77633789 -5.48681641 26.17626953 C-13.95361566 30.01339879 -22.17522751 32.46858629 -31.24697876 34.41275024 C-55.32388194 39.64274626 -72.09513246 47.856422 -86 69 C-87.32 68.67 -88.64 68.34 -90 68 C-90.6231491 59.12012537 -87.54163592 54.63178589 -81.875 48.0625 C-77.36855791 43.18238941 -72.51149753 38.72989814 -67 35 C-66.34 35 -65.68 35 -65 35 C-65 34.34 -65 33.68 -65 33 C-66.19625 33.12375 -67.3925 33.2475 -68.625 33.375 C-75.62892868 33.44223772 -81.81490614 29.95617573 -88 27 C-88 26.01 -88 25.02 -88 24 C-86.10424749 23.97278824 -84.20838021 23.95350864 -82.3125 23.9375 C-81.25675781 23.92589844 -80.20101563 23.91429687 -79.11328125 23.90234375 C-76 24 -76 24 -73.70654297 24.48901367 C-54.25711799 28.16100054 -31.34928693 25.82926293 -14.26171875 15.59765625 C-8.25728113 11.35617959 -4.07535529 6.05128513 0 0 Z " fill="#060A05" transform="translate(393,296)"/>
<path d="M0 0 C1.0209375 -0.01160156 1.0209375 -0.01160156 2.0625 -0.0234375 C4.70343796 0.51965861 5.40794257 1.1819873 7 3.375 C7.30110438 5.90470583 7.42025955 8.18974872 7.40405273 10.72045898 C7.41091599 11.46549683 7.41777924 12.21053467 7.42485046 12.97814941 C7.44316205 15.44265769 7.43927484 17.90653199 7.43359375 20.37109375 C7.43815364 22.08358467 7.44345863 23.79607376 7.44947815 25.50856018 C7.45841791 29.09896271 7.45597655 32.68914292 7.44604492 36.27954102 C7.43455686 40.88106715 7.45475938 45.48182573 7.48396206 50.083251 C7.50230766 53.6203143 7.50203486 57.15719313 7.49632454 60.69429207 C7.49617111 62.39076883 7.50223352 64.08725792 7.51461601 65.7836895 C7.52949301 68.15633153 7.51887459 70.52754907 7.50170898 72.90014648 C7.51621094 73.95151543 7.51621094 73.95151543 7.53100586 75.02412415 C7.48031355 78.36981668 7.19940042 80.11157112 5.15614319 82.81092834 C3 84.375 3 84.375 0 84.875 C-3.7668066 84.2471989 -4.7089703 83.40169065 -7 80.375 C-7.38988051 77.74259732 -7.53797303 75.52923281 -7.50170898 72.90014648 C-7.50711197 72.15335632 -7.51251495 71.40656616 -7.51808167 70.637146 C-7.5305712 68.17305659 -7.51407913 65.710135 -7.49609375 63.24609375 C-7.49624872 61.53263793 -7.49773733 59.81918175 -7.50050354 58.10572815 C-7.50188757 54.51702352 -7.48932777 50.92871855 -7.46655273 47.34008789 C-7.43814645 42.73745583 -7.44091107 38.13548674 -7.45364285 33.53280544 C-7.46059306 29.99577661 -7.45281867 26.45890139 -7.44038582 22.92189217 C-7.43586642 21.22460583 -7.43553878 19.52730303 -7.43945122 17.83001518 C-7.44235761 15.45981831 -7.4258858 13.09053987 -7.40405273 10.72045898 C-7.40855438 10.01752213 -7.41305603 9.31458527 -7.41769409 8.59034729 C-7.37340141 5.70044679 -7.32253525 3.81928291 -5.59584045 1.44081116 C-3.60588527 0.11178329 -2.3816945 -0.02706471 0 0 Z " fill="#030502" transform="translate(248,382.625)"/>
<path d="M0 0 C0.57492188 0.22042969 1.14984375 0.44085938 1.7421875 0.66796875 C1.7421875 1.65796875 1.7421875 2.64796875 1.7421875 3.66796875 C0.203125 5.10546875 0.203125 5.10546875 -1.8828125 6.66796875 C-7.71376326 11.63622982 -11.84107239 17.26170438 -12.578125 25.0546875 C-12.37076167 30.40344176 -12.03654996 35.32852093 -8 39.26953125 C-4.79388055 41.84305314 -1.57427079 44.3899478 1.73046875 46.8359375 C2.72626953 47.74279297 2.72626953 47.74279297 3.7421875 48.66796875 C3.7421875 49.65796875 3.7421875 50.64796875 3.7421875 51.66796875 C2.0921875 51.66796875 0.4421875 51.66796875 -1.2578125 51.66796875 C-1.2578125 51.00796875 -1.2578125 50.34796875 -1.2578125 49.66796875 C-2.0209375 49.56484375 -2.7840625 49.46171875 -3.5703125 49.35546875 C-6.55685067 48.59147061 -7.22473498 47.8704694 -9.2578125 45.66796875 C-10.4334375 44.98734375 -10.4334375 44.98734375 -11.6328125 44.29296875 C-16.8665982 41.05300617 -21.39452962 36.14810442 -24.2578125 30.66796875 C-24.92261293 26.45756601 -24.6964575 24.46090395 -22.6328125 20.73046875 C-21.8490625 19.71984375 -21.0653125 18.70921875 -20.2578125 17.66796875 C-19.49984375 16.60255859 -19.49984375 16.60255859 -18.7265625 15.515625 C-15.68773724 11.27765545 -15.68773724 11.27765545 -14.2578125 9.66796875 C-13.5978125 9.66796875 -12.9378125 9.66796875 -12.2578125 9.66796875 C-12.00773437 9.07628906 -11.75765625 8.48460937 -11.5 7.875 C-10.08868409 5.3674733 -8.66512258 4.09088566 -6.3828125 2.35546875 C-5.70476562 1.82308594 -5.02671875 1.29070312 -4.328125 0.7421875 C-2.2578125 -0.33203125 -2.2578125 -0.33203125 0 0 Z " fill="#B6FC6C" transform="translate(107.2578125,287.33203125)"/>
<path d="M0 0 C2.97 0 5.94 0 9 0 C9.05814085 3.58326501 9.09364357 7.16640838 9.125 10.75 C9.14175781 11.76578125 9.15851563 12.7815625 9.17578125 13.828125 C9.18222656 14.8078125 9.18867188 15.7875 9.1953125 16.796875 C9.20578613 17.69760742 9.21625977 18.59833984 9.22705078 19.52636719 C8.98721676 22.13926856 8.32312064 23.75664666 7 26 C6.34 26 5.68 26 5 26 C2.8348583 30.94889531 0.86749751 35.93107817 -1 41 C-1.66 40.67 -2.32 40.34 -3 40 C-2.690625 39.29875 -2.38125 38.5975 -2.0625 37.875 C-0.1298524 32.64548296 0.12216635 27.60959449 0.09765625 22.0703125 C0.09443359 20.78125 0.09121094 19.4921875 0.08789062 18.1640625 C0.07953733 16.81770764 0.07107241 15.47135348 0.0625 14.125 C0.0574783 12.75520996 0.05291657 11.38541815 0.04882812 10.015625 C0.03707254 6.6770381 0.02063964 3.33854185 0 0 Z " fill="#7EDE3E" transform="translate(315,403)"/>
<path d="M0 0 C2.65649524 2.04008403 3.84233411 3.25905495 4.54589844 6.56542969 C4.5668457 7.50805664 4.58779297 8.45068359 4.609375 9.421875 C4.64160156 10.44667969 4.67382812 11.47148437 4.70703125 12.52734375 C4.72121094 13.59082031 4.73539062 14.65429688 4.75 15.75 C4.77964844 16.82894531 4.80929687 17.90789062 4.83984375 19.01953125 C4.91046936 21.67976244 4.96320196 24.33912102 5 27 C6.98 27.66 8.96 28.32 11 29 C11 20.09 11 11.18 11 2 C11.66 2 12.32 2 13 2 C12.67 11.24 12.34 20.48 12 30 C9.03 30 6.06 30 3 30 C2.98018066 29.25314941 2.96036133 28.50629883 2.93994141 27.73681641 C2.84491789 24.36584395 2.73514741 20.99551071 2.625 17.625 C2.5940625 16.449375 2.563125 15.27375 2.53125 14.0625 C2.49257813 12.94101562 2.45390625 11.81953125 2.4140625 10.6640625 C2.3826416 9.62717285 2.3512207 8.5902832 2.31884766 7.52197266 C2.24045528 4.83190165 2.24045528 4.83190165 0 3 C-3.5 2.58333333 -3.5 2.58333333 -7 3 C-9.41307741 6.61961612 -9.26941215 9.23073371 -9.22705078 13.40893555 C-9.22734283 14.16039856 -9.22763489 14.91186157 -9.22793579 15.68609619 C-9.22654253 18.16975453 -9.21098166 20.65311282 -9.1953125 23.13671875 C-9.19158235 24.85878841 -9.18873539 26.5808602 -9.18673706 28.30293274 C-9.17910073 32.83543762 -9.15945225 37.36781432 -9.1373291 41.90026855 C-9.11687067 46.52529161 -9.10773535 51.15033537 -9.09765625 55.77539062 C-9.07620635 64.85031673 -9.0420704 73.92514771 -9 83 C-9.66 83 -10.32 83 -11 83 C-11.04632832 72.89916554 -11.08187175 62.79835633 -11.10362434 52.69743729 C-11.11406417 48.00723774 -11.12822705 43.31711085 -11.15087891 38.62695312 C-11.17260012 34.10119665 -11.18456713 29.57551009 -11.18975449 25.04970551 C-11.19345153 23.32252654 -11.20067088 21.59535143 -11.21146011 19.86820221 C-11.22596545 17.45013643 -11.22797835 15.03236006 -11.22705078 12.61425781 C-11.23424133 11.89928131 -11.24143188 11.18430481 -11.24884033 10.44766235 C-11.23377761 6.82184885 -11.11638588 4.02291003 -9 1 C-5.90826248 -0.54586876 -3.40570448 -0.29359521 0 0 Z " fill="#80D14D" transform="translate(274,380)"/>
<path d="M0 0 C3 1 3 1 4.4296875 3.16015625 C8.60146104 11.53752853 11.42485692 20.02118253 14 29 C14.66 29 15.32 29 16 29 C18.31 21.41 20.62 13.82 23 6 C23.33 6 23.66 6 24 6 C24.52519691 11.9036023 22.63117909 16.62113727 20.625 22.0625 C20.30789063 22.94744141 19.99078125 23.83238281 19.6640625 24.74414062 C18.18213643 28.85957282 16.66529133 32.95451955 15 37 C12.35609093 34.35609093 12.256379 32.27237409 11.4375 28.625 C8.99954283 18.53877242 4.45212131 9.32750767 0 0 Z " fill="#87E04B" transform="translate(403,200)"/>
<path d="M0 0 C2.61484373 0.01848382 5.22933536 0.02050728 7.84423828 0.02026367 C9.53043923 0.02517309 11.21663782 0.03099888 12.90283203 0.0378418 C14.0576709 0.03951103 14.0576709 0.03951103 15.23583984 0.04121399 C19.78242277 0.08084769 24.10336537 0.46304567 28.59033203 1.20581055 C28.59033203 1.53581055 28.59033203 1.86581055 28.59033203 2.20581055 C27.77991455 2.20057373 26.96949707 2.19533691 26.13452148 2.18994141 C23.06111933 2.17266404 19.98774232 2.16024799 16.91430664 2.15087891 C14.95668876 2.14351319 12.99909332 2.13079229 11.04150391 2.11791992 C3.84475284 2.09960758 -3.23363972 2.36075249 -10.40258789 2.98095703 C-14.84678803 3.31327077 -19.26823676 3.31511823 -23.72216797 3.26831055 C-24.56972656 3.26379883 -25.41728516 3.25928711 -26.29052734 3.25463867 C-28.33027327 3.24311468 -30.3699816 3.22519511 -32.40966797 3.20581055 C-32.40966797 2.87581055 -32.40966797 2.54581055 -32.40966797 2.20581055 C-21.55171693 0.39101097 -10.99385275 -0.08042245 0 0 Z " fill="#7FD74B" transform="translate(245.40966796875,20.794189453125)"/>
<path d="M0 0 C0.66 0 1.32 0 2 0 C2.8410478 3.6464806 3.11764968 6.99950907 3.09765625 10.73828125 C3.09443359 11.80498047 3.09121094 12.87167969 3.08789062 13.97070312 C3.07951172 15.07349609 3.07113281 16.17628906 3.0625 17.3125 C3.05798828 18.43462891 3.05347656 19.55675781 3.04882812 20.71289062 C3.03707313 23.4753151 3.02064077 26.23762998 3 29 C4.65 28.67 6.3 28.34 8 28 C8.06058594 26.79601562 8.12117187 25.59203125 8.18359375 24.3515625 C8.26799732 22.77602923 8.35264541 21.20050904 8.4375 19.625 C8.49647461 18.43390625 8.49647461 18.43390625 8.55664062 17.21875 C8.88671875 11.2265625 8.88671875 11.2265625 10 9 C10.66 9 11.32 9 12 9 C11.67 9.99 11.34 10.98 11 12 C10.85426942 13.47965926 10.75336732 14.96403843 10.68359375 16.44921875 C10.64169922 17.29677734 10.59980469 18.14433594 10.55664062 19.01757812 C10.51732422 19.89865234 10.47800781 20.77972656 10.4375 21.6875 C10.39431641 22.58017578 10.35113281 23.47285156 10.30664062 24.39257812 C10.20064647 26.59490108 10.09857949 28.79733473 10 31 C6.625 31.125 6.625 31.125 3 31 C0.20822431 28.20822431 0.68786516 26.36816428 0.5859375 22.4609375 C0.54726562 21.15898437 0.50859375 19.85703125 0.46875 18.515625 C0.43729237 17.13542138 0.40604509 15.75521296 0.375 14.375 C0.33682066 12.98695459 0.29776895 11.59893289 0.2578125 10.2109375 C0.16327057 6.80742815 0.07772103 3.40392835 0 0 Z " fill="#81D745" transform="translate(189,372)"/>
<path d="M0 0 C1.093125 0.0825 2.18625 0.165 3.3125 0.25 C3.3125 0.58 3.3125 0.91 3.3125 1.25 C2.36375 1.53875 1.415 1.8275 0.4375 2.125 C-2.73961578 3.01825109 -2.73961578 3.01825109 -4.6875 5.25 C-5.02095322 8.44843152 -5.02095322 8.44843152 -5.00634766 12.27001953 C-5.01639328 12.99207581 -5.0264389 13.71413208 -5.03678894 14.45806885 C-5.06773072 16.84964181 -5.08468626 19.24110229 -5.1015625 21.6328125 C-5.12026534 23.28906225 -5.13983808 24.94530239 -5.1602478 26.60153198 C-5.21166855 30.96460309 -5.25124086 35.32770512 -5.28839111 39.69091797 C-5.32836862 44.14168002 -5.3794894 48.59231232 -5.4296875 53.04296875 C-5.52656443 61.77855734 -5.61093132 70.51420992 -5.6875 79.25 C-6.0175 79.25 -6.3475 79.25 -6.6875 79.25 C-6.75699877 69.54034349 -6.81031063 59.83074612 -6.84293652 50.12089157 C-6.85859502 45.61224331 -6.87983662 41.10376519 -6.91381836 36.59521484 C-6.9464053 32.2445127 -6.96435162 27.89397424 -6.97213173 23.54315948 C-6.97767644 21.88295159 -6.9885039 20.22275269 -7.00469017 18.56261444 C-7.02645597 16.23783482 -7.02946734 13.91373225 -7.02807617 11.58886719 C-7.038862 10.9019429 -7.04964783 10.21501862 -7.0607605 9.50727844 C-7.04141373 6.5210013 -6.80153801 4.46583306 -5.39668274 1.8069458 C-3.6875 0.25 -3.6875 0.25 0 0 Z " fill="#18290E" transform="translate(270.6875,381.75)"/>
<path d="M0 0 C0.66 0 1.32 0 2 0 C3.22692377 6.93882099 3.3375945 13.9064378 3.5625 20.9375 C3.60568359 22.19369141 3.64886719 23.44988281 3.69335938 24.74414062 C3.79893619 27.82932968 3.90104551 30.91459263 4 34 C5.65 34 7.3 34 9 34 C9.33 33.34 9.66 32.68 10 32 C10.66 32 11.32 32 12 32 C11.67 33.32 11.34 34.64 11 36 C9.52093108 36.02689216 8.04172517 36.04634621 6.5625 36.0625 C5.73878906 36.07410156 4.91507813 36.08570313 4.06640625 36.09765625 C2 36 2 36 1 35 C0.84003834 32.40846893 0.74061303 29.8404798 0.68359375 27.24609375 C0.66281265 26.47064713 0.64203156 25.6952005 0.62062073 24.89625549 C0.55504198 22.41009692 0.49620201 19.92382955 0.4375 17.4375 C0.39432267 15.75584796 0.35070864 14.07420706 0.30664062 12.39257812 C0.19935221 8.26183129 0.09810868 4.13097464 0 0 Z " fill="#7CD445" transform="translate(171,356)"/>
<path d="M0 0 C0.33 0 0.66 0 1 0 C1.07476562 0.556875 1.14953125 1.11375 1.2265625 1.6875 C2.46652403 8.88413947 5.22291054 14.20114953 11.171875 18.609375 C13.08338302 19.81592971 15.00155534 20.94498353 17 22 C16.34 22.33 15.68 22.66 15 23 C15 23.66 15 24.32 15 25 C12.12781337 23.6743754 9.83004857 22.19104865 7.4375 20.125 C6.85871094 19.63257813 6.27992187 19.14015625 5.68359375 18.6328125 C1.56006402 14.63365837 0.60314309 12.06286176 0.3125 6.25 C0.24675781 5.07953125 0.18101563 3.9090625 0.11328125 2.703125 C0.07589844 1.81109375 0.03851563 0.9190625 0 0 Z " fill="#92E751" transform="translate(94,309)"/>
<path d="M0 0 C0.66 0.33 1.32 0.66 2 1 C1.30849854 1.68626465 0.61699707 2.3725293 -0.09545898 3.07958984 C-2.65674174 5.62279269 -5.21473009 8.16928709 -7.77172852 10.71679688 C-8.8795536 11.81958861 -9.98827393 12.92148176 -11.09790039 14.02246094 C-12.6913208 15.60377221 -14.28150948 17.18827124 -15.87109375 18.7734375 C-16.61799721 19.51259903 -16.61799721 19.51259903 -17.37998962 20.26669312 C-20.02334742 22.88137668 -20.02334742 22.88137668 -22 26 C-22.66 25.67 -23.32 25.34 -24 25 C-19.4465832 18.90585002 -14.56375685 13.37024566 -9.1875 8 C-8.62458252 7.43643799 -8.06166504 6.87287598 -7.48168945 6.29223633 C-5.08484733 3.92705944 -2.80976263 1.87317509 0 0 Z " fill="#B0FB65" transform="translate(125,71)"/>
<path d="M0 0 C0.99 0.495 0.99 0.495 2 1 C2.52734375 2.75 2.52734375 2.75 2.9375 5 C3.63237516 8.38751641 4.42014672 11.69360183 5.4375 15 C5.66308594 15.7425 5.88867188 16.485 6.12109375 17.25 C6.926907 19.36777128 6.926907 19.36777128 10 20 C10.33 18.35 10.66 16.7 11 15 C12.07310858 18.27185553 11.89263102 20.42947592 11.0625 23.75 C10.86785156 24.54921875 10.67320313 25.3484375 10.47265625 26.171875 C10.31667969 26.77515625 10.16070312 27.3784375 10 28 C9.34 28 8.68 28 8 28 C7.03899895 25.31342788 6.08113751 22.62580289 5.125 19.9375 C4.85558594 19.18533203 4.58617188 18.43316406 4.30859375 17.65820312 C0 5.52057927 0 5.52057927 0 0 Z " fill="#85DE4A" transform="translate(74,209)"/>
<path d="M0 0 C2.64 0 5.28 0 8 0 C8.02505615 0.54712646 8.0501123 1.09425293 8.07592773 1.65795898 C8.63401057 13.77759458 9.25406372 25.89043866 10 38 C9.34 38 8.68 38 8 38 C6.65384507 25.69229775 6.90175315 13.36247682 7 1 C3.45481116 2.39759905 3.45481116 2.39759905 0 4 C0 2.68 0 1.36 0 0 Z " fill="#82D94B" transform="translate(190,415)"/>
<path d="M0 0 C1 2 1 2 0.25 5.0625 C-0.19110586 12.00991724 3.88856442 16.87104044 8.3125 21.9375 C8.82425781 22.48277344 9.33601563 23.02804687 9.86328125 23.58984375 C11 25 11 25 11 27 C11.66 27 12.32 27 13 27 C12.67 27.99 12.34 28.98 12 30 C-2.35397782 15.23590853 -2.35397782 15.23590853 -3.28125 6.28515625 C-2.9325399 3.4518867 -1.87273521 2.10682711 0 0 Z " fill="#89DE50" transform="translate(78,305)"/>
<path d="M0 0 C0.33 0 0.66 0 1 0 C3.26081592 7.01570654 3.30691111 13.75577666 3.26074219 21.09130859 C3.24998638 23.12757897 3.26070179 25.16297454 3.2734375 27.19921875 C3.26957031 29.14634766 3.26957031 29.14634766 3.265625 31.1328125 C3.26336914 32.30730957 3.26111328 33.48180664 3.25878906 34.69189453 C2.99291743 38.09053663 2.2139102 40.82659523 1 44 C0.15252647 41.55174315 -0.01075671 40.0587061 0.4609375 37.484375 C1.1655887 32.92967302 1.1903733 28.47719918 1.1875 23.875 C1.18886963 22.9459082 1.19023926 22.01681641 1.19165039 21.05957031 C1.14780455 14.84753481 0.6539938 9.06553993 -0.66015625 2.984375 C-0.77230469 2.32953125 -0.88445312 1.6746875 -1 1 C-0.67 0.67 -0.34 0.34 0 0 Z " fill="#88E150" transform="translate(402,136)"/>
<path d="M0 0 C0.67804688 0.48726562 1.35609375 0.97453125 2.0546875 1.4765625 C1.0646875 1.9715625 1.0646875 1.9715625 0.0546875 2.4765625 C-0.9353125 2.1465625 -1.9253125 1.8165625 -2.9453125 1.4765625 C-11.47732982 0.94868229 -19.58808853 1.79005965 -27.9453125 3.4765625 C-28.2753125 2.8165625 -28.6053125 2.1565625 -28.9453125 1.4765625 C-20.25185693 -1.55982115 -8.56227402 -4.42876242 0 0 Z " fill="#77C743" transform="translate(365.9453125,207.5234375)"/>
<path d="M0 0 C0.99 0 1.98 0 3 0 C4.37868281 1.62935241 5.71274093 3.29749607 7 5 C7.66 5.33 8.32 5.66 9 6 C9 6.66 9 7.32 9 8 C9.556875 8.2475 10.11375 8.495 10.6875 8.75 C13.42410913 10.22924818 15.67650869 11.93467439 18 14 C18 14.66 18 15.32 18 16 C18.99 16.33 19.98 16.66 21 17 C21 17.66 21 18.32 21 19 C21.66 19 22.32 19 23 19 C22.67 19.66 22.34 20.32 22 21 C14.12336054 14.82971183 6.79186519 8.3567592 0 1 C0 0.67 0 0.34 0 0 Z " fill="#85D94C" transform="translate(160,435)"/>
<path d="M0 0 C4.43734283 0.61233653 8.02469122 2.36948158 11.9375 4.4375 C16.19873746 6.67661178 20.3795832 8.59623978 25 10 C24.67 10.66 24.34 11.32 24 12 C15.02781375 10.01536894 7.76349472 5.70955516 0 1 C0 0.67 0 0.34 0 0 Z " fill="#81D447" transform="translate(192,462)"/>
<path d="M0 0 C2.125 0.375 2.125 0.375 4 1 C4 4 4 4 2.25 5.82421875 C1.5075 6.43910156 0.765 7.05398438 0 7.6875 C-1.11375 8.62142578 -1.11375 8.62142578 -2.25 9.57421875 C-2.8275 10.04472656 -3.405 10.51523437 -4 11 C-5.1640625 7.328125 -5.1640625 7.328125 -3.6875 4.375 C-2 2 -2 2 0 0 Z " fill="#BAF672" transform="translate(105,287)"/>
<path d="M0 0 C-1.15757812 0.53109375 -2.31515625 1.0621875 -3.5078125 1.609375 C-5.04699618 2.32265524 -6.58605192 3.03621158 -8.125 3.75 C-9.26582031 4.27207031 -9.26582031 4.27207031 -10.4296875 4.8046875 C-13.92781517 6.43312624 -17.24835529 8.07253641 -20.4296875 10.265625 C-23 12 -23 12 -25 12 C-24.67 11.01 -24.34 10.02 -24 9 C-23.01 9 -22.02 9 -21 9 C-21 8.34 -21 7.68 -21 7 C-18.25643874 5.63121452 -15.50644895 4.27986823 -12.75 2.9375 C-11.97269531 2.54755859 -11.19539063 2.15761719 -10.39453125 1.75585938 C-9.64042969 1.39169922 -8.88632812 1.02753906 -8.109375 0.65234375 C-7.41811523 0.31195068 -6.72685547 -0.02844238 -6.01464844 -0.37915039 C-3.62242947 -1.11635505 -2.33429153 -0.80784795 0 0 Z " fill="#83E049" transform="translate(337,212)"/>
<path d="M0 0 C0.33 0.66 0.66 1.32 1 2 C1.66 2 2.32 2 3 2 C3.66 6.62 4.32 11.24 5 16 C6.98 16 8.96 16 11 16 C11 16.33 11 16.66 11 17 C8.03 17 5.06 17 2 17 C1.34 11.39 0.68 5.78 0 0 Z " fill="#7CCD48" transform="translate(312,375)"/>
<path d="M0 0 C0.64453125 1.765625 0.64453125 1.765625 1 4 C0.07421875 5.921875 0.07421875 5.921875 -1.3125 7.75 C-1.98732422 8.67039062 -1.98732422 8.67039062 -2.67578125 9.609375 C-3.11277344 10.06828125 -3.54976563 10.5271875 -4 11 C-4.66 11 -5.32 11 -6 11 C-6.33 11.99 -6.66 12.98 -7 14 C-7.99 14 -8.98 14 -10 14 C-10 14.66 -10 15.32 -10 16 C-11.98 16.33 -13.96 16.66 -16 17 C-15.34 16.484375 -14.68 15.96875 -14 15.4375 C-13.01 14.633125 -12.02 13.82875 -11 13 C-10.33742188 12.46761719 -9.67484375 11.93523437 -8.9921875 11.38671875 C-4.85309256 7.94256411 -2.00678143 5.1423774 0 0 Z " fill="#81D248" transform="translate(384,286)"/>
<path d="M0 0 C0.66 0.33 1.32 0.66 2 1 C-3.61 6.61 -9.22 12.22 -15 18 C-15.66 17.67 -16.32 17.34 -17 17 C-12.0252641 11.16526986 -6.8758329 5.92339116 -1 1 C-0.67 0.67 -0.34 0.34 0 0 Z " fill="#92FA47" transform="translate(133,79)"/>
<path d="M0 0 C-1.65 0.33 -3.3 0.66 -5 1 C-3.77065985 4.68802044 -2.06140622 5.72356973 1 8 C-2.59058544 8 -3.74787471 7.10368497 -6.6875 5.125 C-7.49574219 4.59132813 -8.30398437 4.05765625 -9.13671875 3.5078125 C-9.75160156 3.01023437 -10.36648437 2.51265625 -11 2 C-11 1.34 -11 0.68 -11 0 C-3.57142857 -1.28571429 -3.57142857 -1.28571429 0 0 Z " fill="#7BC24B" transform="translate(181,329)"/>
<path d="M0 0 C0.33 0.66 0.66 1.32 1 2 C-1.88045467 6.65304216 -5.03915221 10.21919074 -9 14 C-9.99 13.67 -10.98 13.34 -12 13 C-11.55269531 12.56429687 -11.10539062 12.12859375 -10.64453125 11.6796875 C-6.85478464 7.94650427 -3.33540417 4.143987 0 0 Z " fill="#84E045" transform="translate(123,191)"/>
<path d="M0 0 C2.64 0 5.28 0 8 0 C8 7.92 8 15.84 8 24 C7.67 24 7.34 24 7 24 C7 16.41 7 8.82 7 1 C3.45678112 2.40375831 3.45678112 2.40375831 0 4 C0 2.68 0 1.36 0 0 Z " fill="#8BF648" transform="translate(278,421)"/>
<path d="M0 0 C0.71607422 -0.00773438 1.43214844 -0.01546875 2.16992188 -0.0234375 C5.95219269 -0.00941611 8.85630678 0.14044206 12.0625 2.25 C9.0625 3.25 9.0625 3.25 7.375 2.8125 C0.97289493 1.2552312 -4.75460774 2.48345936 -10.9375 4.25 C-10.9375 3.59 -10.9375 2.93 -10.9375 2.25 C-7.21425349 -0.23216434 -4.3052041 -0.04625107 0 0 Z " fill="#86E34B" transform="translate(141.9375,205.75)"/>
<path d="M0 0 C2.51522326 1.0033896 5.02811104 2.01147831 7.53515625 3.03515625 C8.36917969 3.37417969 9.20320312 3.71320313 10.0625 4.0625 C10.89910156 4.40410156 11.73570312 4.74570313 12.59765625 5.09765625 C14.72360823 5.89618456 16.78686571 6.50421703 19 7 C18 8 18 8 14.5625 8.5 C8.64536989 8.48926111 4.33094268 4.70082602 0 1 C0 0.67 0 0.34 0 0 Z " fill="#86DB4A" transform="translate(207,238)"/>
<path d="M0 0 C0.33 0.99 0.66 1.98 1 3 C-0.15404143 4.51674017 -1.32467663 6.02615883 -2.60546875 7.4375 C-4.18933958 9.148947 -4.18933958 9.148947 -6 11.875 C-8 14 -8 14 -10.75 14.3125 C-11.86375 14.1578125 -11.86375 14.1578125 -13 14 C-12.67 13.34 -12.34 12.68 -12 12 C-11.01 12 -10.02 12 -9 12 C-6.88506836 9.58108133 -6.88506836 9.58108133 -4.875 6.5625 C-4.17117188 5.55316406 -3.46734375 4.54382813 -2.7421875 3.50390625 C-2.16726563 2.67761719 -1.59234375 1.85132813 -1 1 C-0.67 0.67 -0.34 0.34 0 0 Z " fill="#80D74A" transform="translate(316,352)"/>
<path d="M0 0 C0.66 0 1.32 0 2 0 C1.67854004 0.54366211 1.35708008 1.08732422 1.02587891 1.64746094 C-0.19205753 4.44042512 -0.3169991 6.59930528 -0.4140625 9.640625 C-0.45273437 10.71054687 -0.49140625 11.78046875 -0.53125 12.8828125 C-0.5621875 13.99398438 -0.593125 15.10515625 -0.625 16.25 C-0.66367187 17.37664062 -0.70234375 18.50328125 -0.7421875 19.6640625 C-0.83637336 22.44254548 -0.92199586 25.22102334 -1 28 C-1.33 28 -1.66 28 -2 28 C-2.05796132 23.89589245 -2.09358313 19.79188984 -2.125 15.6875 C-2.14175781 14.52025391 -2.15851563 13.35300781 -2.17578125 12.15039062 C-2.18222656 11.03212891 -2.18867188 9.91386719 -2.1953125 8.76171875 C-2.20578613 7.73006592 -2.21625977 6.69841309 -2.22705078 5.63549805 C-2 3 -2 3 0 0 Z " fill="#203C16" transform="translate(288,381)"/>
<path d="M0 0 C0.33 0.99 0.66 1.98 1 3 C-0.26257233 4.17560179 -1.53537084 5.34022865 -2.8125 6.5 C-3.87404297 7.47453125 -3.87404297 7.47453125 -4.95703125 8.46875 C-7 10 -7 10 -10 10 C-10 10.66 -10 11.32 -10 12 C-10.99 12.33 -11.98 12.66 -13 13 C-13.66 12.34 -14.32 11.68 -15 11 C-14.40832031 10.69707031 -13.81664062 10.39414062 -13.20703125 10.08203125 C-8.3728242 7.51903404 -4.6367431 5.09133599 -1 1 C-0.67 0.67 -0.34 0.34 0 0 Z " fill="#84D94B" transform="translate(398,322)"/>
<path d="M0 0 C1.2065625 0.0309375 1.2065625 0.0309375 2.4375 0.0625 C2.7675 1.7125 3.0975 3.3625 3.4375 5.0625 C2.7775 4.4025 2.1175 3.7425 1.4375 3.0625 C-0.54616695 2.92943843 -0.54616695 2.92943843 -2.5625 4.0625 C-4.82575246 7.04013043 -4.82575246 7.04013043 -6.5625 10.0625 C-6.8925 8.7425 -7.2225 7.4225 -7.5625 6.0625 C-6.9025 6.0625 -6.2425 6.0625 -5.5625 6.0625 C-5.253125 5.258125 -4.94375 4.45375 -4.625 3.625 C-3.15384615 0.07692308 -3.15384615 0.07692308 0 0 Z " fill="#82DE48" transform="translate(394.5625,293.9375)"/>
<path d="M0 0 C1.65 0 3.3 0 5 0 C5 0.66 5 1.32 5 2 C3.217871 3.44074715 1.37339724 4.80510649 -0.5 6.125 C-2.03140625 7.21167969 -2.03140625 7.21167969 -3.59375 8.3203125 C-4.3878125 8.87460937 -5.181875 9.42890625 -6 10 C-6.33 9.01 -6.66 8.02 -7 7 C-5.35 6.34 -3.7 5.68 -2 5 C-2 4.34 -2 3.68 -2 3 C-1.34 3 -0.68 3 0 3 C0 2.01 0 1.02 0 0 Z " fill="#7FD24E" transform="translate(323,329)"/>
<path d="M0 0 C0.66 0.33 1.32 0.66 2 1 C-1.61328125 5.6875 -1.61328125 5.6875 -3 7 C-3.99 7 -4.98 7 -6 7 C-6.33 7.99 -6.66 8.98 -7 10 C-7.99 9.67 -8.98 9.34 -10 9 C-6.7 6.03 -3.4 3.06 0 0 Z " fill="#86DB4D" transform="translate(327,342)"/>
<path d="M0 0 C0.66 0.66 1.32 1.32 2 2 C1.67257813 2.55171875 1.34515625 3.1034375 1.0078125 3.671875 C-0.16787715 6.38780923 -0.20248638 8.30551759 -0.125 11.25 C-0.10695313 12.14203125 -0.08890625 13.0340625 -0.0703125 13.953125 C-0.04710938 14.62859375 -0.02390625 15.3040625 0 16 C-0.66 15.67 -1.32 15.34 -2 15 C-3.38491045 8.82116875 -2.90779748 5.58297116 0 0 Z " fill="#ADF860" transform="translate(95,303)"/>
<path d="M0 0 C3.72433382 1.2125738 7.37802806 2.50859979 11 4 C10.360625 4.103125 9.72125 4.20625 9.0625 4.3125 C8.381875 4.539375 7.70125 4.76625 7 5 C6.67 5.99 6.34 6.98 6 8 C4.9970458 6.85675161 3.99770973 5.71032809 3 4.5625 C2.443125 3.92441406 1.88625 3.28632813 1.3125 2.62890625 C0 1 0 1 0 0 Z " fill="#86D94F" transform="translate(108,321)"/>
<path d="M0 0 C0.99 0.33 1.98 0.66 3 1 C1.23754778 2.1999038 -0.53526981 3.38459517 -2.3125 4.5625 C-3.79169922 5.55443359 -3.79169922 5.55443359 -5.30078125 6.56640625 C-6.19152344 7.03949219 -7.08226562 7.51257813 -8 8 C-8.99 7.67 -9.98 7.34 -11 7 C-7.52671426 4.22137141 -3.9587532 2.01536527 0 0 Z " fill="#87E348" transform="translate(306,459)"/>
<path d="M0 0 C3.37503669 1.1858237 5.64722731 2.27573689 8 5 C7.34 5 6.68 5 6 5 C6 5.66 6 6.32 6 7 C2.63279613 5.60667426 1.0140476 4.0210714 -1 1 C-0.67 0.67 -0.34 0.34 0 0 Z " fill="#89E946" transform="translate(103,327)"/>
<path d="M0 0 C1.72357119 2.58535679 2.44735018 4.03811614 3.1875 6.9375 C3.36667969 7.60652344 3.54585938 8.27554688 3.73046875 8.96484375 C4.03268678 11.24680888 3.68756692 12.82026659 3 15 C0.73045369 11.59568053 0.63450051 9.83475798 0.375 5.8125 C0.30023438 4.72582031 0.22546875 3.63914063 0.1484375 2.51953125 C0.09945313 1.68808594 0.05046875 0.85664063 0 0 Z " fill="#79CA48" transform="translate(425,132)"/>
<path d="M0 0 C0.99 0.33 1.98 0.66 3 1 C3 1.66 3 2.32 3 3 C2.34 3 1.68 3 1 3 C1 8.94 1 14.88 1 21 C0.67 21 0.34 21 0 21 C0 14.07 0 7.14 0 0 Z " fill="#0D1F05" transform="translate(394,126)"/>
<path d="M0 0 C0.33 0.66 0.66 1.32 1 2 C0.34 2 -0.32 2 -1 2 C-1 2.66 -1 3.32 -1 4 C-3.75 6.1875 -3.75 6.1875 -7 8 C-8.32 7.67 -9.64 7.34 -11 7 C-7.37 4.69 -3.74 2.38 0 0 Z " fill="#85D84C" transform="translate(142,50)"/>
<path d="M0 0 C-2.68657635 2.68657635 -5.46664114 3.65976043 -9 5 C-10.32 5 -11.64 5 -13 5 C-13 4.34 -13 3.68 -13 3 C-4.57142857 -0.42857143 -4.57142857 -0.42857143 0 0 Z " fill="#87E648" transform="translate(289,470)"/>
<path d="M0 0 C0.99 0 1.98 0 3 0 C4.37868281 1.62935241 5.71274093 3.29749607 7 5 C7.66 5.33 8.32 5.66 9 6 C9 6.66 9 7.32 9 8 C9.99 8.33 10.98 8.66 12 9 C11.34 9.66 10.68 10.32 10 11 C8.33035479 9.35718838 6.6643536 7.71067239 5 6.0625 C4.071875 5.14597656 3.14375 4.22945313 2.1875 3.28515625 C0 1 0 1 0 0 Z " fill="#89E54B" transform="translate(160,435)"/>
<path d="M0 0 C4.20763224 1.5027258 5.8027758 4.23332995 8 8 C8 8.66 8 9.32 8 10 C7.34 10 6.68 10 6 10 C5.608125 9.030625 5.21625 8.06125 4.8125 7.0625 C3.32405113 3.77823609 3.32405113 3.77823609 0.3125 3.125 C-0.8321875 3.063125 -0.8321875 3.063125 -2 3 C-1.34 2.01 -0.68 1.02 0 0 Z " fill="#86DD4C" transform="translate(247,341)"/>
<path d="M0 0 C0.66 0.33 1.32 0.66 2 1 C-0.62652025 4.59930552 -2.93963643 7.07666989 -7 9 C-7.66 8.67 -8.32 8.34 -9 8 C-6.03 5.36 -3.06 2.72 0 0 Z " fill="#80CF4B" transform="translate(124,62)"/>
<path d="M0 0 C-4.33664919 3.11696661 -7.80408388 3.55966813 -13 4 C-4.66666667 -1.55555556 -4.66666667 -1.55555556 0 0 Z " fill="#7BD047" transform="translate(194,324)"/>
<path d="M0 0 C-2.90092502 1.93395001 -3.89674737 2.30131941 -7.1875 2.625 C-8.445625 2.74875 -9.70375 2.8725 -11 3 C-11 2.34 -11 1.68 -11 1 C-3.57142857 -1.42857143 -3.57142857 -1.42857143 0 0 Z " fill="#82E342" transform="translate(392,344)"/>
<path d="M0 0 C0.33 0.99 0.66 1.98 1 3 C-0.65 4.65 -2.3 6.3 -4 8 C-4.99 7.67 -5.98 7.34 -7 7 C-6.01 6.67 -5.02 6.34 -4 6 C-2.90833725 4.06669397 -2.90833725 4.06669397 -2 2 C-1.34 1.34 -0.68 0.68 0 0 Z " fill="#A8FD5E" transform="translate(99,291)"/>
<path d="M0 0 C0.99 0.33 1.98 0.66 3 1 C-1.455 3.97 -1.455 3.97 -6 7 C-6 6.01 -6 5.02 -6 4 C-3.1875 1.75 -3.1875 1.75 0 0 Z " fill="#85DE4B" transform="translate(316,452)"/>
<path d="M0 0 C1.27351308 2.54702616 0.80191925 3.4282945 0.0625 6.125 C-0.13214844 6.84945313 -0.32679687 7.57390625 -0.52734375 8.3203125 C-0.68332031 8.87460937 -0.83929688 9.42890625 -1 10 C-1.66 9.67 -2.32 9.34 -3 9 C-3.26218749 5.85375007 -3.24754367 4.38162983 -1.5 1.6875 C-1.005 1.130625 -0.51 0.57375 0 0 Z " fill="#81C44B" transform="translate(78,305)"/>
<path d="M0 0 C3 1 3 1 4.75 3.8125 C6.05483179 7.13982105 6.02866653 7.79584277 5 11 C4.16151196 9.54462432 3.32936066 8.08559627 2.5 6.625 C1.80390625 5.40683594 1.80390625 5.40683594 1.09375 4.1640625 C0 2 0 2 0 0 Z " fill="#87DA49" transform="translate(264,301)"/>
<path d="M0 0 C2.95183101 2.95183101 3.08663988 5.95511947 4 10 C3.01 10 2.02 10 1 10 C0.67 6.7 0.34 3.4 0 0 Z " fill="#78CD44" transform="translate(111,278)"/>
<path d="M0 0 C1.32 0.33 2.64 0.66 4 1 C4.33 3.31 4.66 5.62 5 8 C2.9754262 6.06745228 1.57894208 4.36841312 0 2 C0 1.34 0 0.68 0 0 Z " fill="#1B2D12" transform="translate(234,224)"/>
<path d="M0 0 C0.99 0.33 1.98 0.66 3 1 C3 1.99 3 2.98 3 4 C3.66 4 4.32 4 5 4 C5.33 5.98 5.66 7.96 6 10 C3.25722422 6.80009492 1.3697164 3.99500618 0 0 Z " fill="#89DF4A" transform="translate(376,217)"/>
<path d="M0 0 C-1.90401138 1.90401138 -3.33425686 2.93520439 -6.046875 3.19921875 C-8.03233273 3.1886578 -10.0169914 3.09915043 -12 3 C-12 2.67 -12 2.34 -12 2 C-10.37787941 1.47026689 -8.75218416 0.95146893 -7.125 0.4375 C-6.22007812 0.14746094 -5.31515625 -0.14257812 -4.3828125 -0.44140625 C-2 -1 -2 -1 0 0 Z " fill="#6DB93F" transform="translate(363,306)"/>
<path d="M0 0 C1.32 0 2.64 0 4 0 C4.33 2.31 4.66 4.62 5 7 C4.54625 6.505 4.0925 6.01 3.625 5.5 C2.12364481 3.77390663 2.12364481 3.77390663 0 4 C0 2.68 0 1.36 0 0 Z " fill="#1A3112" transform="translate(260,224)"/>
<path d="M0 0 C0 0.33 0 0.66 0 1 C-1.093125 1.28875 -2.18625 1.5775 -3.3125 1.875 C-7.04013845 2.81893204 -7.04013845 2.81893204 -10 5 C-9.625 3.0625 -9.625 3.0625 -9 1 C-6.04335481 -0.4783226 -3.25770263 -0.06032783 0 0 Z " fill="#8EF548" transform="translate(274,380)"/>
<path d="M0 0 C0.33 0.99 0.66 1.98 1 3 C-0.65 4.65 -2.3 6.3 -4 8 C-4.66 7.67 -5.32 7.34 -6 7 C-4.02 4.69 -2.04 2.38 0 0 Z " fill="#86D150" transform="translate(105,80)"/>
</svg>
